<svg width="120" height="41" viewBox="0 0 120 41" fill="none" xmlns="http://www.w3.org/2000/svg">
<path d="M0 3.28C0 1.46851 1.46851 0 3.28 0H33.422C36.2945 0 37.7794 3.43068 35.8133 5.52495L24.2058 17.8895C23.0382 19.1333 23.0189 21.0645 24.1615 22.3313L36.0601 35.5232C37.9632 37.6331 36.4659 41 33.6245 41H3.28C1.46851 41 0 39.5315 0 37.72V3.28Z" fill="#3C50E0"/>
<path d="M50.396 34.432C47.66 34.432 45.56 33.808 44.096 32.56C42.632 31.312 41.9 29.476 41.9 27.052V25.504H47.084V26.98C47.084 27.964 47.36 28.72 47.912 29.248C48.488 29.776 49.316 30.04 50.396 30.04C51.452 30.04 52.244 29.776 52.772 29.248C53.3 28.72 53.564 27.964 53.564 26.98V9.304H58.82V27.052C58.82 29.476 58.1 31.312 56.66 32.56C55.22 33.808 53.132 34.432 50.396 34.432ZM69.3919 13.804H61.7599V9.304H82.2439V13.804H74.6119V34H69.3919V13.804ZM85.4237 9.304H93.5597L97.0157 22.912C97.2797 23.944 97.6637 25.804 98.1677 28.492H98.3477C98.7797 25.684 99.1157 23.824 99.3557 22.912L102.812 9.304H110.588V34H105.368V18.268C105.368 17.572 105.44 16.252 105.584 14.308H105.404L104.648 17.224L100.4 34H95.4317L91.1837 17.224L90.4277 14.308H90.2477C90.3917 16.324 90.4637 17.644 90.4637 18.268V34H85.4237V9.304Z" fill="#01015E"/>
</svg>
